<?xml version="1.0" standalone="no"?>
<!DOCTYPE svg PUBLIC "-//W3C//DTD SVG 20010904//EN"
 "http://www.w3.org/TR/2001/REC-SVG-20010904/DTD/svg10.dtd">
<svg version="1.0" xmlns="http://www.w3.org/2000/svg"
 width="225.000000pt" height="225.000000pt" viewBox="0 0 225.000000 225.000000"
 preserveAspectRatio="xMidYMid meet">
<metadata>
Created by potrace 1.16, written by Peter Selinger 2001-2019
</metadata>
<g transform="translate(0.000000,225.000000) scale(0.100000,-0.100000)"
fill="#000000" stroke="none">
<path d="M618 1883 c-22 -27 -29 -50 -38 -143 -9 -78 -6 -130 16 -361 5 -53 2
-79 -15 -130 -36 -110 -37 -163 -6 -254 50 -146 99 -239 156 -297 68 -67 95
-88 115 -88 11 0 14 -5 9 -17 -5 -14 -3 -15 6 -6 15 15 53 -2 74 -33 8 -13 36
-36 62 -51 42 -24 58 -28 128 -28 70 0 86 4 128 28 26 15 54 38 62 51 21 31
59 48 74 33 9 -9 11 -8 6 6 -5 12 -2 17 9 17 20 0 47 21 115 88 57 58 106 151
156 297 31 91 30 144 -6 254 -17 51 -20 77 -15 130 22 231 25 283 16 361 -12
118 -31 160 -72 160 -49 0 -182 -165 -242 -302 -14 -32 -27 -58 -30 -58 -2 0
-25 10 -52 22 -70 32 -228 32 -298 0 -27 -12 -50 -22 -52 -22 -3 0 -16 26 -30
58 -41 93 -109 195 -168 250 -58 55 -83 63 -108 35z m142 -238 c65 -101 68
-111 36 -144 -37 -38 -83 -64 -91 -50 -4 6 -12 62 -18 124 -15 172 -2 184 73
70z m807 59 c7 -18 -12 -237 -22 -253 -8 -14 -54 12 -91 50 -32 33 -29 43 36
144 50 76 66 88 77 59z m-705 -648 c-2 -5 2 -13 10 -18 10 -7 10 -11 1 -15
-16 -6 -17 -39 -2 -49 16 -10 30 16 26 49 -4 32 2 34 36 7 59 -47 37 -100 -41
-100 -37 0 -50 6 -78 34 -41 41 -46 82 -11 96 26 11 63 9 59 -4z m582 4 c38
-14 34 -54 -8 -96 -28 -28 -41 -34 -78 -34 -58 0 -87 27 -70 65 21 45 82 69
82 32 0 -7 -4 -6 -10 3 -8 12 -10 10 -10 -10 0 -14 4 -31 9 -39 15 -23 32 -1
31 38 -1 20 -2 39 -1 44 1 10 25 9 55 -3z"/>
</g>
</svg>
